<svg width="87" height="24" viewBox="0 0 87 24" fill="none" xmlns="http://www.w3.org/2000/svg">
<path d="M24.984 16.41C24.528 16.41 24.092 16.362 23.676 16.266C23.26 16.162 22.892 16.006 22.572 15.798C22.252 15.582 22 15.318 21.816 15.006C21.632 14.686 21.54 14.31 21.54 13.878C21.54 13.83 21.54 13.782 21.54 13.734C21.548 13.686 21.552 13.65 21.552 13.626H23.124C23.124 13.642 23.12 13.674 23.112 13.722C23.112 13.762 23.112 13.798 23.112 13.83C23.112 14.094 23.188 14.322 23.34 14.514C23.492 14.698 23.712 14.842 24 14.946C24.288 15.042 24.628 15.09 25.02 15.09C25.284 15.09 25.516 15.074 25.716 15.042C25.924 15.01 26.1 14.966 26.244 14.91C26.396 14.846 26.52 14.774 26.616 14.694C26.712 14.606 26.78 14.51 26.82 14.406C26.868 14.302 26.892 14.19 26.892 14.07C26.892 13.838 26.82 13.646 26.676 13.494C26.532 13.342 26.336 13.214 26.088 13.11C25.848 13.006 25.572 12.914 25.26 12.834C24.956 12.746 24.64 12.658 24.312 12.57C23.992 12.482 23.676 12.378 23.364 12.258C23.06 12.13 22.784 11.978 22.536 11.802C22.296 11.626 22.104 11.406 21.96 11.142C21.816 10.87 21.744 10.546 21.744 10.17C21.744 9.78597 21.824 9.44997 21.984 9.16197C22.152 8.87397 22.384 8.63797 22.68 8.45397C22.984 8.26197 23.336 8.12197 23.736 8.03397C24.136 7.93797 24.572 7.88997 25.044 7.88997C25.484 7.88997 25.896 7.93797 26.28 8.03397C26.672 8.12197 27.016 8.26597 27.312 8.46597C27.608 8.65797 27.84 8.90597 28.008 9.20997C28.176 9.50597 28.26 9.86197 28.26 10.278V10.422H26.712V10.302C26.712 10.07 26.64 9.87397 26.496 9.71397C26.36 9.55397 26.164 9.42997 25.908 9.34197C25.66 9.25397 25.368 9.20997 25.032 9.20997C24.672 9.20997 24.364 9.24597 24.108 9.31797C23.852 9.38197 23.656 9.48197 23.52 9.61797C23.384 9.74597 23.316 9.90597 23.316 10.098C23.316 10.298 23.388 10.466 23.532 10.602C23.676 10.738 23.868 10.854 24.108 10.95C24.356 11.046 24.632 11.134 24.936 11.214C25.248 11.294 25.564 11.382 25.884 11.478C26.212 11.566 26.528 11.67 26.832 11.79C27.144 11.91 27.42 12.062 27.66 12.246C27.908 12.422 28.104 12.642 28.248 12.906C28.392 13.17 28.464 13.486 28.464 13.854C28.464 14.47 28.312 14.966 28.008 15.342C27.712 15.718 27.3 15.99 26.772 16.158C26.252 16.326 25.656 16.41 24.984 16.41Z" fill="white"/>
<path d="M32.4119 16.41C31.7559 16.41 31.2079 16.294 30.7679 16.062C30.3359 15.822 30.0119 15.458 29.7959 14.97C29.5799 14.482 29.4719 13.862 29.4719 13.11C29.4719 12.35 29.5799 11.73 29.7959 11.25C30.0199 10.762 30.3479 10.402 30.7799 10.17C31.2199 9.92997 31.7639 9.80997 32.4119 9.80997C32.8359 9.80997 33.2119 9.86197 33.5399 9.96597C33.8679 10.07 34.1479 10.23 34.3799 10.446C34.6199 10.654 34.7999 10.914 34.9199 11.226C35.0399 11.538 35.0999 11.902 35.0999 12.318H33.6119C33.6119 12.022 33.5679 11.778 33.4799 11.586C33.3919 11.394 33.2559 11.25 33.0719 11.154C32.8959 11.05 32.6679 10.998 32.3879 10.998C32.0599 10.998 31.7919 11.074 31.5839 11.226C31.3759 11.378 31.2199 11.606 31.1159 11.91C31.0199 12.206 30.9719 12.582 30.9719 13.038V13.194C30.9719 13.642 31.0199 14.018 31.1159 14.322C31.2199 14.626 31.3799 14.854 31.5959 15.006C31.8119 15.15 32.0959 15.222 32.4479 15.222C32.7199 15.222 32.9439 15.174 33.1199 15.078C33.3039 14.974 33.4439 14.822 33.5399 14.622C33.6359 14.422 33.6839 14.182 33.6839 13.902H35.0999C35.0999 14.294 35.0399 14.646 34.9199 14.958C34.7999 15.27 34.6239 15.534 34.3919 15.75C34.1599 15.966 33.8759 16.13 33.5399 16.242C33.2119 16.354 32.8359 16.41 32.4119 16.41Z" fill="white"/>
<path d="M36.3464 16.266V9.95397H37.5704L37.6904 10.95H37.7744C37.8544 10.75 37.9504 10.566 38.0624 10.398C38.1824 10.222 38.3344 10.082 38.5184 9.97797C38.7024 9.86597 38.9264 9.80997 39.1904 9.80997C39.3184 9.80997 39.4344 9.82197 39.5384 9.84597C39.6504 9.86997 39.7344 9.89397 39.7904 9.91797V11.298H39.3464C39.0984 11.298 38.8784 11.334 38.6864 11.406C38.4944 11.47 38.3304 11.574 38.1944 11.718C38.0664 11.862 37.9704 12.042 37.9064 12.258C37.8424 12.474 37.8104 12.726 37.8104 13.014V16.266H36.3464Z" fill="white"/>
<path d="M43.3849 16.41C42.6969 16.41 42.1209 16.294 41.6569 16.062C41.1929 15.822 40.8449 15.458 40.6129 14.97C40.3809 14.482 40.2649 13.862 40.2649 13.11C40.2649 12.35 40.3809 11.73 40.6129 11.25C40.8449 10.762 41.1929 10.402 41.6569 10.17C42.1209 9.92997 42.6969 9.80997 43.3849 9.80997C44.0809 9.80997 44.6569 9.92997 45.1129 10.17C45.5769 10.402 45.9249 10.762 46.1569 11.25C46.3889 11.73 46.5049 12.35 46.5049 13.11C46.5049 13.862 46.3889 14.482 46.1569 14.97C45.9249 15.458 45.5769 15.822 45.1129 16.062C44.6569 16.294 44.0809 16.41 43.3849 16.41ZM43.3849 15.21C43.7689 15.21 44.0769 15.138 44.3089 14.994C44.5489 14.842 44.7209 14.618 44.8249 14.322C44.9369 14.018 44.9929 13.642 44.9929 13.194V13.026C44.9929 12.578 44.9369 12.206 44.8249 11.91C44.7209 11.606 44.5489 11.382 44.3089 11.238C44.0769 11.086 43.7689 11.01 43.3849 11.01C43.0009 11.01 42.6889 11.086 42.4489 11.238C42.2169 11.382 42.0449 11.606 41.9329 11.91C41.8289 12.206 41.7769 12.578 41.7769 13.026V13.194C41.7769 13.642 41.8289 14.018 41.9329 14.322C42.0449 14.618 42.2169 14.842 42.4489 14.994C42.6889 15.138 43.0009 15.21 43.3849 15.21Z" fill="white"/>
<path d="M47.7488 16.266V7.58997H49.2128V16.266H47.7488Z" fill="white"/>
<path d="M50.7722 16.266V7.58997H52.2362V16.266H50.7722Z" fill="white"/>
<path d="M56.33 16.266V8.03397H59.63C60.462 8.03397 61.174 8.18197 61.766 8.47797C62.358 8.77397 62.814 9.22597 63.134 9.83397C63.454 10.434 63.614 11.206 63.614 12.15C63.614 13.086 63.454 13.858 63.134 14.466C62.814 15.074 62.358 15.526 61.766 15.822C61.174 16.118 60.462 16.266 59.63 16.266H56.33ZM57.89 14.934H59.63C60.014 14.934 60.354 14.878 60.65 14.766C60.946 14.654 61.194 14.49 61.394 14.274C61.594 14.05 61.746 13.774 61.85 13.446C61.954 13.11 62.006 12.722 62.006 12.282V12.03C62.006 11.582 61.954 11.194 61.85 10.866C61.746 10.53 61.594 10.254 61.394 10.038C61.194 9.81397 60.946 9.64597 60.65 9.53397C60.354 9.42197 60.014 9.36597 59.63 9.36597H57.89V14.934Z" fill="white"/>
<path d="M67.7365 16.41C67.0485 16.41 66.4725 16.294 66.0085 16.062C65.5445 15.822 65.1965 15.458 64.9645 14.97C64.7325 14.482 64.6165 13.862 64.6165 13.11C64.6165 12.35 64.7325 11.73 64.9645 11.25C65.1965 10.762 65.5445 10.402 66.0085 10.17C66.4725 9.92997 67.0485 9.80997 67.7365 9.80997C68.4325 9.80997 69.0085 9.92997 69.4645 10.17C69.9285 10.402 70.2765 10.762 70.5085 11.25C70.7405 11.73 70.8565 12.35 70.8565 13.11C70.8565 13.862 70.7405 14.482 70.5085 14.97C70.2765 15.458 69.9285 15.822 69.4645 16.062C69.0085 16.294 68.4325 16.41 67.7365 16.41ZM67.7365 15.21C68.1205 15.21 68.4285 15.138 68.6605 14.994C68.9005 14.842 69.0725 14.618 69.1765 14.322C69.2885 14.018 69.3445 13.642 69.3445 13.194V13.026C69.3445 12.578 69.2885 12.206 69.1765 11.91C69.0725 11.606 68.9005 11.382 68.6605 11.238C68.4285 11.086 68.1205 11.01 67.7365 11.01C67.3525 11.01 67.0405 11.086 66.8005 11.238C66.5685 11.382 66.3965 11.606 66.2845 11.91C66.1805 12.206 66.1285 12.578 66.1285 13.026V13.194C66.1285 13.642 66.1805 14.018 66.2845 14.322C66.3965 14.618 66.5685 14.842 66.8005 14.994C67.0405 15.138 67.3525 15.21 67.7365 15.21Z" fill="white"/>
<path d="M73.2404 16.266L71.3563 9.95397H72.8684L73.7444 13.386C73.7924 13.562 73.8323 13.738 73.8643 13.914C73.8963 14.082 73.9243 14.226 73.9483 14.346C73.9723 14.466 73.9883 14.538 73.9963 14.562H74.0684C74.1004 14.418 74.1324 14.262 74.1644 14.094C74.1964 13.926 74.2244 13.774 74.2484 13.638C74.2804 13.494 74.3003 13.398 74.3083 13.35L75.1244 9.95397H76.6964L77.5484 13.362C77.5804 13.474 77.6084 13.606 77.6324 13.758C77.6644 13.902 77.6964 14.046 77.7284 14.19C77.7604 14.334 77.7844 14.458 77.8004 14.562H77.8724C77.8884 14.466 77.9084 14.35 77.9324 14.214C77.9644 14.078 77.9964 13.938 78.0284 13.794C78.0604 13.65 78.0884 13.518 78.1124 13.398L78.9763 9.95397H80.3804L78.5084 16.266H76.9604L76.2404 13.254C76.2084 13.102 76.1683 12.93 76.1203 12.738C76.0803 12.546 76.0404 12.354 76.0004 12.162C75.9684 11.97 75.9404 11.806 75.9164 11.67H75.8443C75.8443 11.726 75.8323 11.826 75.8083 11.97C75.7843 12.114 75.7484 12.294 75.7004 12.51C75.6604 12.726 75.6044 12.974 75.5324 13.254L74.7883 16.266H73.2404Z" fill="white"/>
<path d="M81.1941 16.266V9.95397H82.4181L82.5381 10.794H82.6221C82.7661 10.602 82.9341 10.434 83.1261 10.29C83.3261 10.138 83.5501 10.022 83.7981 9.94197C84.0541 9.85397 84.3341 9.80997 84.6381 9.80997C85.0381 9.80997 85.3901 9.88197 85.6941 10.026C86.0061 10.17 86.2501 10.402 86.4261 10.722C86.6021 11.042 86.6901 11.47 86.6901 12.006V16.266H85.2141V12.27C85.2141 12.046 85.1861 11.862 85.1301 11.718C85.0821 11.566 85.0061 11.446 84.9021 11.358C84.8061 11.262 84.6861 11.194 84.5421 11.154C84.3981 11.114 84.2381 11.094 84.0621 11.094C83.7981 11.094 83.5581 11.158 83.3421 11.286C83.1341 11.414 82.9661 11.59 82.8381 11.814C82.7181 12.038 82.6581 12.298 82.6581 12.594V16.266H81.1941Z" fill="white"/>
<path fill-rule="evenodd" clip-rule="evenodd" d="M8 5C8.55228 5 9 5.44772 9 6V10C9 10.5523 8.55228 11 8 11C7.44772 11 7 10.5523 7 10V6C7 5.44772 7.44772 5 8 5Z" fill="white"/>
<path fill-rule="evenodd" clip-rule="evenodd" d="M14.5 16V8C14.5 4.41015 11.5899 1.5 8 1.5C4.41015 1.5 1.5 4.41015 1.5 8V16C1.5 19.5899 4.41015 22.5 8 22.5C11.5899 22.5 14.5 19.5899 14.5 16ZM8 0C3.58172 0 0 3.58172 0 8V16C0 20.4183 3.58172 24 8 24C12.4183 24 16 20.4183 16 16V8C16 3.58172 12.4183 0 8 0Z" fill="white"/>
</svg>
